Coordinates
version=1
nRows=24
nColumns=24
inDegrees=yes

Units are S.I. units (second, meters, Newtons, ...)
Angles are in degrees.

endheader
time	pelvis_tilt	pelvis_list	pelvis_rotation	pelvis_tx	pelvis_ty	pelvis_tz	hip_flexion_r	hip_adduction_r	hip_rotation_r	knee_angle_r	ankle_angle_r	subtalar_angle_r	mtp_angle_r	hip_flexion_l	hip_adduction_l	hip_rotation_l	knee_angle_l	ankle_angle_l	subtalar_angle_l	mtp_angle_l	lumbar_extension	lumbar_bending	lumbar_rotation
      1.07483333	      1.76519159	     -0.89770755	      1.23381057	      0.55478991	      1.01965439	      0.32499930	      6.71436912	      5.62904239	      5.26126818	    -15.50082213	      5.82965573	    -15.57963495	      8.68289736	     13.54492804	     -1.88858549	     -3.83598070	    -70.17659547	      4.98867974	     -5.18532676	      5.89548257	     -2.02593922	      1.93351165	      3.03571316
      1.07900000	      1.75725733	     -0.82709968	      0.94004164	      0.55939965	      1.02019798	      0.32540607	      6.29978193	      5.56044366	      5.45406026	    -15.21746616	      5.89274728	    -15.41914839	      8.74565298	     14.10844435	     -1.83170722	     -4.10262442	    -69.96464964	      5.16906764	     -5.37558429	      5.87248470	     -2.06553336	      1.85511084	      3.13986424
      1.08316667	      1.76660445	     -0.73475619	      0.65870987	      0.56400226	      1.02076410	      0.32576832	      5.86349896	      5.46086157	      5.63310286	    -14.92915757	      6.00342753	    -15.25735811	      8.86661885	     14.63915763	     -1.74046059	     -4.34410612	    -69.69767547	      5.28654462	     -5.62268726	      5.81846656	     -2.11518748	      1.76135336	      3.42765931
      1.08733333	      1.75171210	     -0.66045396	      0.37465750	      0.56857867	      1.02124318	      0.32615582	      5.46538713	      5.38024260	      5.81648066	    -14.65923001	      6.07693666	    -15.09282214	      8.93871713	     15.19531114	     -1.68892514	     -4.60025226	    -69.42018874	      5.44389450	     -5.83658976	      5.78285629	     -2.14797059	      1.66838250	      3.55261957
      1.09150000	      1.76573919	     -0.58264159	      0.10697371	      0.57314395	      1.02174102	      0.32649203	      5.03103414	      5.28822188	      5.98409215	    -14.37738646	      6.18921123	    -14.92816462	      9.05382143	     15.70981384	     -1.62359382	     -4.82500624	    -69.10005679	      5.55800541	     -6.07576975	      5.71800367	     -2.20366744	      1.59502769	      3.80639878
      1.09566667	      1.76197830	     -0.50643793	     -0.16853449	      0.57768590	      1.02217834	      0.32685203	      4.62889482	      5.19756063	      6.15924998	    -14.11787492	      6.27289263	    -14.76489488	      9.12983554	     16.23758461	     -1.57780969	     -5.06914675	    -68.75776670	      5.69116319	     -6.28920310	      5.67151657	     -2.24964035	      1.49767483	      3.93769165
      1.09983333	      1.74431631	     -0.44804624	     -0.42837836	      0.58223220	      1.02255510	      0.32716061	      4.23866714	      5.11925155	      6.32233336	    -13.85071806	      6.35236917	    -14.60849384	      9.17638999	     16.77423706	     -1.54674608	     -5.28410920	    -68.39201966	      5.83728671	     -6.47247926	      5.64124086	     -2.26458912	      1.45856758	      4.04031417
      1.10400000	      1.77136305	     -0.37012640	     -0.68001854	      0.58674071	      1.02297794	      0.32746624	      3.80627828	      5.01670435	      6.47174084	    -13.59521006	      6.48870291	    -14.43219120	      9.28807203	     17.25193463	     -1.49315392	     -5.48831570	    -67.98103284	      5.91230465	     -6.70446225	      5.55921545	     -2.34872216	      1.35963291	      4.33264731
      1.10816667	      1.76586556	     -0.31185716	     -0.93561444	      0.59124721	      1.02331407	      0.32776614	      3.41371531	      4.93336116	      6.63452423	    -13.34539233	      6.59307368	    -14.26799127	      9.39060175	     17.75769878	     -1.47209743	     -5.69535166	    -67.55325563	      6.02374003	     -6.87030801	      5.47974631	     -2.39039901	      1.29684101	      4.49754549
      1.11233333	      1.74253511	     -0.27694021	     -1.14936397	      0.59576666	      1.02357843	      0.32802085	      3.02567758	      4.87137984	      6.76282902	    -13.06624234	      6.67042386	    -14.12767355	      9.41071984	     18.28521211	     -1.47156174	     -5.84969012	    -67.11729493	      6.16349979	     -6.96175955	      5.46540929	     -2.39877039	      1.25420238	      4.52249855
      1.11650000	      1.75134019	     -0.20686326	     -1.42200514	      0.60022808	      1.02386650	      0.32831906	      2.64170140	      4.76879352	      6.92867729	    -12.86045655	      6.80253828	    -13.93455432	      9.51003273	     18.75099578	     -1.44835717	     -6.07010053	    -66.62061677	      6.22696566	     -7.14494960	      5.37749972	     -2.47365833	      1.17550391	      4.80276599
      1.12066667	      1.71923684	     -0.17785881	     -1.63182558	      0.60472803	      1.02405168	      0.32853916	      2.27205526	      4.70706890	      7.05553548	    -12.59658643	      6.88463182	    -13.79504096	      9.52874058	     19.26784264	     -1.45849703	     -6.21007628	    -66.12651678	      6.34957628	     -7.19741628	      5.36297644	     -2.47072265	      1.15062295	      4.82501203
      1.12483333	      1.73300182	     -0.11846467	     -1.91483390	      0.60917328	      1.02428877	      0.32884021	      1.89206199	      4.61049487	      7.23142148	    -12.40421155	      6.99297430	    -13.61281573	      9.58167334	     19.70292927	     -1.46453687	     -6.43930314	    -65.57159596	      6.42355084	     -7.27125290	      5.31357693	     -2.54802267	      1.08660364	      4.99422334
      1.12900000	      1.71999014	     -0.08435737	     -2.14562264	      0.61363914	      1.02443818	      0.32907397	      1.52201767	      4.53727965	      7.36703306	    -12.17637751	      7.09991122	    -13.43350250	      9.63026338	     20.17175721	     -1.48467231	     -6.59901090	    -65.01197857	      6.51301969	     -7.29361460	      5.26778170	     -2.58585573	      1.04241794	      5.14516037
      1.13316667	      1.69877506	     -0.06612390	     -2.33426479	      0.61811325	      1.02455401	      0.32922690	      1.14753245	      4.47788960	      7.47572051	    -11.92438657	      7.20864636	    -13.30276124	      9.64658477	     20.64617909	     -1.50072288	     -6.69244488	    -64.42963848	      6.59290999	     -7.28993863	      5.25425704	     -2.59666436	      1.03509362	      5.18956895
      1.13733333	      1.69763344	     -0.02090302	     -2.61081200	      0.62253951	      1.02467121	      0.32951817	      0.79341184	      4.38953488	      7.64477008	    -11.74631987	      7.31863290	    -13.10546971	      9.68741706	     21.06699930	     -1.53984651	     -6.90927450	    -63.79846681	      6.65869486	     -7.22935954	      5.21580999	     -2.66978963	      0.96352106	      5.37092504
      1.14150000	      1.72492527	      0.00779281	     -2.83262300	      0.62698250	      1.02478602	      0.32969250	      0.39352066	      4.30869342	      7.74501110	    -11.54393143	      7.48284005	    -12.89432701	      9.75827259	     21.45343500	     -1.56372279	     -7.04009192	    -63.14584286	      6.73654989	     -7.13952107	      5.14580809	     -2.75660927	      0.93821270	      5.63244161
      1.14566667	      1.68846620	      0.03068771	     -3.06786975	      0.63143350	      1.02479236	      0.32988911	      0.06761295	      4.23829556	      7.88709463	    -11.34930080	      7.57152922	    -12.73297080	      9.79139182	     21.89663980	     -1.60811288	     -7.18170403	    -62.46863137	      6.78987830	     -7.03198533	      5.11514777	     -2.76679947	      0.91842735	      5.70035281
      1.14983333	      1.66764142	      0.04094944	     -3.28304423	      0.63588429	      1.02478033	      0.33007104	     -0.28724127	      4.17892648	      8.01785352	    -11.12991550	      7.68320303	    -12.56926453	      9.81410804	     22.31673984	     -1.66555338	     -7.30250635	    -61.77448286	      6.84198063	     -6.89906067	      5.09678316	     -2.79992584	      0.88706426	      5.77579447
      1.15400000	      1.65919735	      0.06305502	     -3.52937199	      0.64032110	      1.02475453	      0.33025870	     -0.62162218	      4.10227675	      8.14727466	    -10.98037514	      7.81611547	    -12.38422894	      9.84715171	     22.69774904	     -1.71918292	     -7.44800301	    -61.03516191	      6.90798180	     -6.66799423	      5.07125390	     -2.84484003	      0.88070116	      5.93247659
      1.15816667	      1.64882074	      0.08277623	     -3.75519123	      0.64478070	      1.02471751	      0.33041786	     -0.96908100	      4.02533269	      8.26502362	    -10.79882136	      7.94242903	    -12.19842690	      9.87601692	     23.06954401	     -1.76873005	     -7.56909902	    -60.26626106	      6.95150519	     -6.45384737	      5.05093153	     -2.88705418	      0.85844006	      6.06326782
      1.16233333	      1.62423989	      0.07995395	     -3.97555443	      0.64924470	      1.02460339	      0.33056526	     -1.29811795	      3.97168797	      8.37892639	    -10.62721636	      8.07622083	    -12.01447234	      9.90414468	     23.45014455	     -1.84854608	     -7.68152553	    -59.48987240	      7.00557503	     -6.19125356	      5.03518682	     -2.91502786	      0.86222894	      6.19362669
      1.16650000	      1.59760468	      0.08649149	     -4.18701240	      0.65373418	      1.02448203	      0.33070955	     -1.63686903	      3.90624435	      8.49445396	    -10.42883322	      8.19906112	    -11.84639968	      9.92306154	     23.81651250	     -1.91682912	     -7.78526881	    -58.67692029	      7.03069592	     -5.94021329	      5.02814687	     -2.94770655	      0.84192460	      6.28026731
      1.17066667	      1.59841337	      0.08059332	     -4.40598393	      0.65821597	      1.02435340	      0.33083186	     -1.98119714	      3.84876100	      8.58546645	    -10.28595206	      8.36751476	    -11.64016813	      9.95615786	     24.13483898	     -1.99902204	     -7.88673428	    -57.83702694	      7.10411244	     -5.59422093	      5.02182692	     -2.99658196	      0.86086528	      6.46344325
